<svg xmlns="http://www.w3.org/2000/svg" viewBox="0 0 200 179.09"><defs><style>.cls-1{fill:#7ab83a;}.cls-2{fill:#006456;}.cls-3{fill:#0b544a;}.cls-4{fill:#926b43;}.cls-5{fill:#65482e;}.cls-6{fill:#399536;}.cls-7{fill:#ccd57a;}.cls-8{fill:#9c8c23;}.cls-9{fill:#acb32f;}</style></defs><title>Fichier 4</title><g id="Calque_2" data-name="Calque 2"><g id="Calque_6" data-name="Calque 6"><path class="cls-1" d="M108.85,101.11a15,15,0,0,1,5.45,2.07,66.66,66.66,0,0,1,14.55,11c1.35-4.47-.9-9.4-4.37-12.53s-8-4.82-12.35-6.44-8.87-3.29-12.36-6.4c.84,2.43-.93,5-3,6.5s-4.64,2.32-6.54,4.06c-4.66,4.26-4.12,12.41-9,16.39,4.14,0,8.61-.22,11.83-2.81,1.8-1.44,3-3.47,4.35-5.33C100.08,103.93,104.25,100.59,108.85,101.11Z"/><path class="cls-1" d="M154.19,105.11c-.2-.47-1.09-.77-1.51-1s-.87-.39-1.31-.57l-4.07-1.66c-2.2-.9-4.43-1.74-6.65-2.6q-5.15-2-10.31-3.94c-12.41-4.68-24.78-9.44-36.82-15a171,171,0,0,1-15.25-8c-4.39-2.57-8.68-5.29-12.83-8.24q-3.18-2.27-6.29-4.67c.55-1,1.06-1.94,1.69-2.87a36.32,36.32,0,0,1,11-10.51c6.77-4.27,14.77-5.56,22.62-5.76a53.57,53.57,0,0,1,8.94.74c.51.07,1.12.08,1.23-.52s-.13-1-.88-1.15c-1.16-.2-2.31-.39-3.48-.54a53.13,53.13,0,0,0-20.74,1.2,38.33,38.33,0,0,0-23,17.38A181.7,181.7,0,0,1,17.39,14C15,10.32,12.91,6.5,10.68,2.73A18.2,18.2,0,0,0,9.61,1.06C9.37.73,9,.11,8.56,0s-.75.32-1,.44c-.39.21-.92.32-.85.86C6.93,3,8,4.6,8.81,6c.48.89,1,1.75,1.54,2.62a185.21,185.21,0,0,0,31,39.14q5.53,5.28,11.5,10.1c.23.19.54.25.38.55a3.19,3.19,0,0,0-.24.65,4.54,4.54,0,0,0-.09.51l0,.32-.21,1.57L50.92,75.25q-.78,6-1.55,12c-1,7.45-1.6,15.24-.08,22.66a32.72,32.72,0,0,0,1.9,6.28,3,3,0,0,1-.44.88l-.86,1.77a34.6,34.6,0,0,0-2.29,6.5c-.53,2.07-.88,4.12-1.21,6.24-.06.43.28.66.7.61s.5-.58.57-.9l.66-3a27.61,27.61,0,0,1,1.73-5,49.24,49.24,0,0,1,2.27-4.61,23,23,0,0,0,5.81,3.13,20.84,20.84,0,0,0,3,.86c.31.06,1.53.46,1.77.09a1.19,1.19,0,0,0,.12-.76c-.08-.28-.45-.3-.68-.36A19.93,19.93,0,0,1,54,117.43c-.5-.44-1.25-.93-1.5-1.57a13.74,13.74,0,0,1-.7-2,36.49,36.49,0,0,1-1.47-7.3,65.94,65.94,0,0,1,.36-14.25c1-8.81,2.57-17.59,3.89-26.36q.46-3,.91-6a175.72,175.72,0,0,0,25.7,16.8c4.5,2.38,9.09,4.59,13.73,6.68.37.17.57.19.74.54a8.2,8.2,0,0,0,.89,1.21c.55.73,1.1,1.46,1.67,2.18a48.43,48.43,0,0,1,4.58,7c2.81,5.22,3.6,11.47,3.33,17.31,0,.45.22.88.73.76s.44-.62.47-1c.08-1,.17-1.95.16-2.92a39.46,39.46,0,0,0-1.17-9.49,39.74,39.74,0,0,0-6.89-13.6c12,5,24.14,9.44,36.31,13.91,2.63,1,5.24,2,7.86,3,2,.75,3.94,1.53,5.9,2.31.86.35,1.73.72,2.61,1a3.28,3.28,0,0,0,1.65.33,1,1,0,0,0,.41-.89C154,104.66,154.22,105.2,154.19,105.11Z"/><path class="cls-2" d="M73.92,19.43C70.91,22,68.18,25,64.77,27c-5.65,3.38-12.52,3.82-19.1,4.17l-10.62.57c-3.95.21-9-.28-10.22-4,1.19,2,4.29,1.74,6.05.27s2.62-3.72,3.74-5.72c5-9.06,15.78-13.54,26.09-14.42S81.33,9.06,91.66,9.79A48.5,48.5,0,0,0,73.92,19.43Z"/><path class="cls-3" d="M33.55,32.21c-5.08,0-8.14-1.46-9.08-4.34l-1-3.19,1.74,2.87a2.88,2.88,0,0,0,2.52,1.24,4.78,4.78,0,0,0,3-1.06,13,13,0,0,0,2.9-4.23c.24-.47.48-.93.74-1.39C38.79,14,48.66,8.52,60.68,7.5c1.7-.15,3.44-.22,5.3-.22A145,145,0,0,1,82,8.47c3.16.35,6.44.71,9.65.93l2.14.15-2,.61a48.11,48.11,0,0,0-17.6,9.56c-.89.77-1.77,1.58-2.62,2.36A41.11,41.11,0,0,1,65,27.37c-5.86,3.51-13,3.89-19.28,4.23l-10.62.56C34.58,32.19,34.07,32.21,33.55,32.21Zm-7.33-2.89c1.37,1.4,3.82,2.11,7.33,2.11.5,0,1,0,1.48,0l10.62-.56c6.2-.34,13.23-.71,18.93-4.12A41.31,41.31,0,0,0,71,21.52c.86-.79,1.74-1.61,2.64-2.38a49.11,49.11,0,0,1,16-9.12c-2.59-.22-5.19-.51-7.72-.79A146,146,0,0,0,66,8.06c-1.84,0-3.56.06-5.24.21C49,9.27,39.34,14.58,35,22.48c-.25.45-.48.91-.72,1.38a13.67,13.67,0,0,1-3.1,4.46A5.44,5.44,0,0,1,26.22,29.32Z"/><path class="cls-2" d="M13,139.91c-.19-15.59,9.67-29.22,18.05-42.37S46.91,68.36,41.59,53.7a56.79,56.79,0,0,0-3.47-7.31q-2.13-4-4.25-7.94c1.71,4,.75,8.65-1.37,12.39s-5.29,6.78-8.26,9.9c-9.72,10.14-18,22-21.82,35.55S-.09,125.18,8,136.69C9.16,138.42,10.92,140.22,13,139.91Z"/><path class="cls-3" d="M12.53,140.33h0c-1.66,0-3.3-1.15-4.89-3.42C.06,126.06-2,110.84,2.05,96.19c3.35-12,10.72-24,21.91-35.72l1.18-1.23a43.82,43.82,0,0,0,7-8.59c2.34-4.12,2.84-8.62,1.35-12l.7-.34,4.25,7.94A55.82,55.82,0,0,1,42,53.57c5.71,15.75-3.3,32.76-10.58,44.18q-1.19,1.86-2.4,3.74c-7.75,12-15.76,24.41-15.59,38.41v.34l-.34,0A3,3,0,0,1,12.53,140.33ZM35.05,41.48A16.11,16.11,0,0,1,32.83,51a44.94,44.94,0,0,1-7.14,8.75L24.51,61C13.42,72.6,6.11,84.51,2.79,96.39c-4,14.44-2,29.42,5.49,40.08,1.43,2.05,2.86,3.09,4.25,3.09h.08c0-14.09,8-26.49,15.71-38.49q1.21-1.87,2.4-3.73c7.19-11.29,16.1-28.08,10.51-43.51a56.8,56.8,0,0,0-3.45-7.26Z"/><path class="cls-4" d="M155.88,65.69a7,7,0,0,1-.83-3.88v0c.83-11.24-6.93-21.47-16-28.13-2.85-2.07-6-4-9.53-4.23-3-.21-6,.84-9,1-3.47.18-7-.8-10.38-.16-5.57,1-9.56,6.36-10.76,11.9s-.17,11.3,1,16.84a25,25,0,0,0,2.53,7.59c1.87,3.14,5,5.33,8,7.34,6.77,4.46,14.28,8.67,22.39,8.5a22.7,22.7,0,0,0,16.56-8.27,9.4,9.4,0,0,1,4-2.68l.39-.17a4.1,4.1,0,0,0,2.31-3.53A4.52,4.52,0,0,0,155.88,65.69Z"/><path class="cls-5" d="M132.81,82.82c-8,0-15.38-4.12-22.15-8.57-3.07-2-6.23-4.27-8.13-7.46A25,25,0,0,1,100,59.08c-1.18-5.54-2.23-11.42-1-17,1.14-5.25,5-11,11.07-12.2a14.68,14.68,0,0,1,2.67-.23c1.16,0,2.33.11,3.47.21a32.27,32.27,0,0,0,4.29.18,33.37,33.37,0,0,0,3.71-.5,22.82,22.82,0,0,1,5.36-.49c3.75.26,7,2.32,9.74,4.3,10.87,7.95,16.92,18.59,16.18,28.47a6.61,6.61,0,0,0,.77,3.68,4.68,4.68,0,0,1,.66,2.27,4.49,4.49,0,0,1-2.51,3.88,3.43,3.43,0,0,1-.44.19,9,9,0,0,0-3.8,2.57,23.22,23.22,0,0,1-16.84,8.41Zm-20.12-52.4a13,13,0,0,0-2.52.22c-5.72,1.08-9.38,6.6-10.47,11.6-1.18,5.44-.15,11.22,1,16.68a24.42,24.42,0,0,0,2.48,7.47c1.82,3.06,4.9,5.24,7.9,7.22,6.79,4.47,14.21,8.62,22.18,8.44a22.42,22.42,0,0,0,16.26-8.14,9.78,9.78,0,0,1,4.12-2.79A2.83,2.83,0,0,0,154,71a3.69,3.69,0,0,0,2.09-3.18,4,4,0,0,0-.56-1.91,7.29,7.29,0,0,1-.87-4.09c.72-9.63-5.22-20-15.87-27.8-2.62-1.92-5.78-3.91-9.33-4.16a22.07,22.07,0,0,0-5.18.48,31.85,31.85,0,0,1-3.8.51,32.19,32.19,0,0,1-4.4-.19C115,30.53,113.81,30.42,112.69,30.42Z"/><path class="cls-2" d="M128.23,94.3c7.12,8.3,10.45,19.13,13,29.75s4.66,21.55,9.88,31.15,14.35,17.88,25.24,18.77c2.66-11.82-1.3-24.08-6.13-35.2-4.21-9.68-9.18-19.15-16.05-27.17S138.44,97,128.23,94.3Z"/><path class="cls-3" d="M176.68,174.38l-.33,0c-10-.83-19.54-7.92-25.55-19-4.5-8.28-6.7-17.65-8.84-26.71-.35-1.52-.71-3-1.08-4.54-2.55-10.51-5.88-21.37-12.94-29.58l-.81-1,1.2.32c9.55,2.55,18.6,8.57,26.16,17.42,5.9,6.89,11,15.56,16.12,27.27,4.33,10,8.95,23,6.14,35.44ZM129.32,95c6.62,8.22,9.84,18.75,12.31,28.95.37,1.51.73,3,1.08,4.54,2.12,9,4.32,18.33,8.77,26.52,5.82,10.7,15,17.61,24.59,18.54,2.6-12.12-1.92-24.86-6.17-34.63-5.06-11.64-10.14-20.24-16-27.08C148.88,106,140.59,98.38,129.32,95Z"/><path class="cls-2" d="M146.46,104.59c5.11,6.57,10.87,13.57,19,15.37,4.3,1,8.83.3,13.13,1.24a36.46,36.46,0,0,1,8.12,3.19l12,5.9c1.56-3.19.87-7.11-.9-10.19s-4.48-5.48-7.14-7.83c-3.75-3.31-7.61-6.69-12.27-8.52a39,39,0,0,0-10.23-2.1,200.24,200.24,0,0,0-27.38-1A4.78,4.78,0,0,0,146.46,104.59Z"/><path class="cls-3" d="M198.92,130.8l-12.38-6.06a36.09,36.09,0,0,0-8-3.17A36.06,36.06,0,0,0,172,121a36.55,36.55,0,0,1-6.66-.64c-7.92-1.74-13.55-8.22-19.08-15.31a4.15,4.15,0,0,1-.79.07h0a5.24,5.24,0,0,1-5.07-4.38l-.05-.42h.42a201,201,0,0,1,27.43,1,39,39,0,0,1,10.33,2.13c4.78,1.87,8.82,5.44,12.39,8.58,2.65,2.35,5.39,4.77,7.21,7.93,2.06,3.57,2.4,7.52.92,10.54Zm-52.31-26.64.15.19c5.48,7.05,11,13.52,18.78,15.23a36.63,36.63,0,0,0,6.52.62,37,37,0,0,1,6.61.62,36.44,36.44,0,0,1,8.21,3.23l11.68,5.71c1.18-2.75.79-6.25-1.06-9.47-1.75-3.05-4.45-5.43-7.06-7.73-3.68-3.26-7.5-6.62-12.15-8.45A38.79,38.79,0,0,0,168.16,102a201,201,0,0,0-26.88-1,4.49,4.49,0,0,0,4.23,3.28h0a4.12,4.12,0,0,0,.86-.1Z"/><path class="cls-4" d="M114.83,177.12c2.07-5.47,7.47-8.83,11.24-13.3,9.31-11,7.76-27.33,5.5-41.61-1-6.46-2.3-13.34-6.81-18.08-3.4-3.59-8.19-5.44-12.82-7.18-3.4-1.29-7.1-2.59-10.58-1.56-2.77.81-4.92,3-6.77,5.17A61,61,0,0,0,81.85,152.2c1.23,5.61,3.36,11.19,7.31,15.37s10,6.69,15.56,5.33a39.18,39.18,0,0,0,6.92,5.23c.72.42,1.63.82,2.33.38A2.64,2.64,0,0,0,114.83,177.12Z"/><path class="cls-5" d="M113.27,179.09a3.63,3.63,0,0,1-1.82-.63,39,39,0,0,1-6.84-5.14,13.77,13.77,0,0,1-3,.33,18.05,18.05,0,0,1-12.71-5.82c-3.5-3.7-5.93-8.79-7.41-15.55a61.7,61.7,0,0,1,12.82-52c1.8-2.13,4-4.43,7-5.29a9.68,9.68,0,0,1,2.78-.39,23.36,23.36,0,0,1,8,2c4.42,1.66,9.43,3.56,13,7.27,4.44,4.67,5.8,11.32,6.91,18.29,2.44,15.43,3.46,31.18-5.59,41.92a56.33,56.33,0,0,1-4.18,4.28c-2.91,2.75-5.65,5.36-7,8.91l0,.08a2.8,2.8,0,0,1-1,1.49A1.67,1.67,0,0,1,113.27,179.09Zm-8.43-6.62.15.15a38.89,38.89,0,0,0,6.85,5.18c.89.52,1.5.65,1.92.38a2.1,2.1,0,0,0,.67-1.11l0-.08c1.4-3.72,4.34-6.51,7.17-9.2a53,53,0,0,0,4.13-4.22c9.3-11,7.67-27.1,5.41-41.29-1.08-6.86-2.41-13.38-6.7-17.89-3.41-3.59-8.33-5.44-12.67-7.08A22.67,22.67,0,0,0,104,95.4a8.92,8.92,0,0,0-2.57.36c-2.73.8-4.86,3-6.58,5a60.91,60.91,0,0,0-12.66,51.3c1.46,6.63,3.82,11.59,7.22,15.19a17.24,17.24,0,0,0,12.15,5.58,12.77,12.77,0,0,0,3-.36Z"/><path class="cls-6" d="M148.49,133.82a55.38,55.38,0,0,1,3.56,4.53c1.39,2.39,1.62,5.25,2.09,8,1.11,6.55,4,13.13,9.41,17,2.45,1.74,5.34,2.88,7.48,5a16.06,16.06,0,0,1,2.82,3.95,1.43,1.43,0,0,0,2.66-.42,10.67,10.67,0,0,0,0-3.78,35.47,35.47,0,0,0-2.37-6.81,64.57,64.57,0,0,1-3.36-11.13c-.45-2.21-.79-4.45-1.4-6.62a54.23,54.23,0,0,0-4.26-9.92q-3.59-7-7.18-14a25.94,25.94,0,0,0-3.63-5.8c-2.09-2.29-4.92-3.76-7.68-5.17-3-1.51-6-3.06-9.37-3.18,2.31.56,3.92,2.73,4.64,5a42.33,42.33,0,0,1,1.09,7,55.42,55.42,0,0,0,2,8.2A27.13,27.13,0,0,0,148.49,133.82Z"/><path class="cls-6" d="M36.11,47.42a4.85,4.85,0,0,1-.38,4.83,15.79,15.79,0,0,1-3.54,3.62,102.73,102.73,0,0,0-12.38,12.3,28.33,28.33,0,0,0-4.42,6.51,50.08,50.08,0,0,0-2.2,7.44A77.75,77.75,0,0,1,6.87,97.51a38.73,38.73,0,0,0-3.29,7.54A27,27,0,0,0,3,113.79,55,55,0,0,0,9.34,136a1.7,1.7,0,0,0,3.19-.65c.63-6.25,3.44-12.36,6.2-18.13L23.14,108a132.48,132.48,0,0,1,8-15c1.33-2.07,2.79-4.07,4-6.22a51.85,51.85,0,0,0,3.37-7.44,38.61,38.61,0,0,0,2.67-10.58,31.16,31.16,0,0,0-.51-7.83A47.68,47.68,0,0,0,36.11,47.42Z"/><path class="cls-2" d="M37.35,49.53c-2,9.3-7.43,17.48-13.1,25.13S12.47,89.8,8.7,98.55s-4.93,19.17-.57,27.63c-2.23-11.46,2.29-23.25,8.64-33s14.55-18.28,21-28c1.63-2.49,3.18-5.18,3.46-8.14S40.11,50.67,37.35,49.53Z"/><path class="cls-6" d="M31.65,30.08a87.54,87.54,0,0,0,11.45.21c4.11-.28,8.17-1.13,12.29-1.2a15.18,15.18,0,0,0,4.86-.49A11,11,0,0,0,64,26.07c3.48-3.25,6.49-7,10.06-10.13s7.89-5.76,12.64-6.11A187.63,187.63,0,0,0,66,8.72c-5.36,0-10.79.26-15.9,1.88S40.19,15.35,37.53,20C35.58,23.41,34.73,27.64,31.65,30.08Z"/><path class="cls-1" d="M45.83,13.05a11.27,11.27,0,0,0-4.52,7.66,6,6,0,0,0,1.27,4.95,7.21,7.21,0,0,0,4.13,1.75,26,26,0,0,0,18.46-4.15c3-2.07,5.59-4.76,8.57-6.91C77.6,13.56,82.08,11.76,86.5,10c-7.45.44-14.88-1-22.33-1.22S48.77,9.62,43,14.35"/><path class="cls-6" d="M166.18,107c2,1,3.87,2.35,6,3.21,3.3,1.34,7,1.4,10.3,2.75,3.76,1.54,6.66,4.63,10.17,6.68a13.38,13.38,0,0,1,3.11,2.1c1.7,1.81,1.81,4.53,2.53,6.91a34.89,34.89,0,0,0-18.09-9.17c-7.74-1.34-16.4-.24-22.78-4.82-4.93-3.55-7.69-10.07-13.43-12.05C151.39,104.09,159.4,103.57,166.18,107Z"/><path class="cls-7" d="M7.1,123.16a7.16,7.16,0,0,1-.14-1,26.47,26.47,0,0,1-.25-2.7,37.34,37.34,0,0,1,.81-9.63A60.07,60.07,0,0,1,11.93,97c.53-1.13,1.09-2.27,1.67-3.42s1.26-2.26,1.89-3.4c1.2-2.34,2.76-4.51,4.18-6.77C22.69,79,26.19,75,29.09,71a44,44,0,0,0,6.46-11.64,27.73,27.73,0,0,0,1.22-5.13,22.55,22.55,0,0,0,.19-4,18.44,18.44,0,0,0-.28-2.56,7.25,7.25,0,0,0-.18-.89c-.29-1.37-.72-2.57-1-3.5s-.42-1.53-.21-1.65h0c.19-.12.69.31,1.29,1.14a11.06,11.06,0,0,1,1.49,3.65,7.6,7.6,0,0,1,.19,1,20.57,20.57,0,0,1,.27,2.78,25.4,25.4,0,0,1-.26,4.31A28.65,28.65,0,0,1,37,59.82a32.39,32.39,0,0,1-2.78,5.92c-.3.49-.57,1-.89,1.51l-1,1.49c-.64,1-1.41,2-2.14,3-3,4-6.53,8-9.56,12.27-1.43,2.21-3,4.33-4.22,6.62L14.45,94c-.6,1.12-1.16,2.24-1.7,3.35A59.6,59.6,0,0,0,8.23,110a36.44,36.44,0,0,0-.92,9.45,25.14,25.14,0,0,0,.21,2.66,7.84,7.84,0,0,0,.12.93c.16.91.18,1.65,0,1.68h0C7.53,124.78,7.27,124.08,7.1,123.16Z"/><path class="cls-2" d="M58.87,17.34c-1.27,1.39-2.7,2.66-4.09,3.92a33.87,33.87,0,0,1-2.58,2.36c-.26.22-.52.42-.79.63l0,0c-.15.12-.31.22-.46.33a2.27,2.27,0,0,1-.25.18l-.34.25-.18.12c-.24.17-.48.33-.73.48s-.49.3-.74.45l-.16.09c-.36.21-.72.41-1.08.59l-.09.05-.86.41a39.46,39.46,0,0,1-9.54,2.95,3.64,3.64,0,0,1-1.51,0,15.6,15.6,0,0,1-2.9-.08c3.74.57,7.48,1.56,11.21,1C49,30.3,53.35,26.55,57,22.6s6.89-8.33,11.45-11.12A43.18,43.18,0,0,0,58.87,17.34Z"/><path class="cls-7" d="M66.81,12.81a3.48,3.48,0,0,0-.41.15c-.25.13-.65.26-1.11.53a14.21,14.21,0,0,0-3.48,2.69,59.89,59.89,0,0,0-4.06,4.88,26.25,26.25,0,0,1-5.29,5.23,25.45,25.45,0,0,1-6.7,3.3,43.65,43.65,0,0,1-6.29,1.57c-1.86.32-3.42.52-4.51.65L33.24,32c-1.38.15-2.55-.14-2.59-.6v0c0-.46,1.08-.92,2.44-1l1.7-.14c1.08-.1,2.62-.25,4.44-.52,3.63-.54,8.54-1.6,12.6-4.31s6.69-7.12,9.47-9.71A14.84,14.84,0,0,1,65,13c.49-.26.92-.4,1.19-.52a2.72,2.72,0,0,1,.44-.14c.43-.13.8-.11.83,0h0C67.5,12.47,67.21,12.69,66.81,12.81Z"/><path class="cls-7" d="M194.51,121.42a3.72,3.72,0,0,1-.62-.22,12.64,12.64,0,0,1-1.68-.77,24.76,24.76,0,0,1-2.41-1.49c-.91-.6-1.9-1.31-3-2a22.79,22.79,0,0,0-8.46-2.78c-3.27-.53-6.84-.73-10.38-1.52A29,29,0,0,1,162.8,111c-1.64-.69-3.2-1.45-4.7-2.14a39.68,39.68,0,0,0-4.38-1.79,14.94,14.94,0,0,0-2.1-.58l-2-.47a44.39,44.39,0,0,1-6.35-1.72,14.16,14.16,0,0,1-1.71-.85,3.4,3.4,0,0,1-.44-.26l-.14-.09a5.87,5.87,0,0,1-1.92-2c-.33-.64-.4-1.11-.21-1.23h0c.2-.13.61.08,1.1.45s1.16.86,1.93,1.36l.13.08a3,3,0,0,0,.37.24,14,14,0,0,0,1.51.78,42.77,42.77,0,0,0,6,1.75l2.05.53a17.73,17.73,0,0,1,2.18.64,43.84,43.84,0,0,1,4.48,1.93,45.49,45.49,0,0,0,9.53,3.93c3.4.83,7,1.1,10.27,1.7a23.49,23.49,0,0,1,8.69,3c1.15.71,2.13,1.45,3,2.06a24.23,24.23,0,0,0,2.33,1.5,10.31,10.31,0,0,0,1.59.77,2.62,2.62,0,0,0,.58.22c.58.16,1,.4,1,.55h0C195.64,121.59,195.13,121.58,194.51,121.42Z"/><path class="cls-7" d="M164.19,153.88l-.6-.37a7.8,7.8,0,0,1-1.45-1.34,14.12,14.12,0,0,1-2.73-6.33c-.29-1.39-.51-2.9-.88-4.44a12.92,12.92,0,0,0-1.86-4.51c-.95-1.38-2.44-2.49-3.51-4.16a15.45,15.45,0,0,1-1.77-5.48,46.8,46.8,0,0,0-7.81-18.62c-.37-.58-.76-1.13-1.14-1.64l-1.08-1.46-1.76-2.37-1.55-2.06c-1.25-1.66-2-3.27-1.6-3.55h0c.37-.28,1.7.9,2.91,2.58l1.51,2.09,1.73,2.41c.33.47.68,1,1.06,1.49s.76,1.08,1.13,1.69a48.16,48.16,0,0,1,7.67,19.26,14.64,14.64,0,0,0,1.53,5.15c.89,1.48,2.36,2.63,3.4,4.17a13.71,13.71,0,0,1,1.91,4.84c.35,1.6.54,3.11.8,4.48a13.54,13.54,0,0,0,2.48,6.09,7.62,7.62,0,0,0,1.31,1.26c.35.23.55.34.55.34.54.31,1,.55.94.71h0C165.36,154.23,164.8,154.21,164.19,153.88Z"/><path class="cls-5" d="M144,39.24a27.69,27.69,0,0,0-9.69-7.71,15.94,15.94,0,0,0-12.14-.59c6.95,3.22,13.89,6.67,19.77,11.58S152.55,54,154,61.54A44.66,44.66,0,0,0,144,39.24Z"/><path class="cls-5" d="M135.32,81.16l6.08-4c-5.8,3-12.85,3.24-19.11,1.29A38.83,38.83,0,0,1,106,67.81c4.72,2.93,10.58,3.33,16.11,2.89S133.15,69,138.7,69c2.45,0,4.9.24,7.35,0a11.49,11.49,0,0,0,6.75-2.54A22.54,22.54,0,0,1,135.32,81.16Z"/><path class="cls-5" d="M150.85,64.56c-2.57-2-6-2.59-9.24-2.72s-6.55.15-9.77-.41c-9.43-1.65-16.62-10.14-26.09-11.54,4.47-.38,9.23-.71,13.2,1.38,2.4,1.26,4.34,3.32,6.84,4.37,3.58,1.49,7.67.66,11.51,1.15,6.09.79,11.19,4.8,15.95,8.67"/><path class="cls-5" d="M114,175.87c.58-3.16,3.61-5.14,6.1-7.18A31,31,0,0,0,131,149.43a6.72,6.72,0,0,1-3.23,4.68,63.72,63.72,0,0,0,.75-42.46,70.16,70.16,0,0,1,1.55,20.58,16.67,16.67,0,0,0-1.82-10.66,30.1,30.1,0,0,1-3.22,23.3c-2.32,3.83-5.46,7.08-7.9,10.82S113,164,114,168.34l-.84-1.72A20.89,20.89,0,0,0,114,175.87Z"/><path class="cls-7" d="M107.74,165.68q2,4.94,4,9.86c-2.29-9-1.54-18.48.07-27.61s4.05-18.13,5.11-27.34a32.87,32.87,0,0,0-.35-11.87c-1-3.85-3.28-7.52-6.8-9.39a80.53,80.53,0,0,1-3.55,30.88L106,129c-1,6.69-2.08,13.41-2.08,20.18s1.1,13.64,4.13,19.69C107.92,167.82,107.83,166.75,107.74,165.68Z"/><path class="cls-8" d="M111.11,177.59c0-9.1,3.66-17.76,7.41-26.05s7.76-16.7,8.63-25.76-2.07-19.08-9.64-24.12A38,38,0,0,0,112.37,99l-4.57-2.11a57.15,57.15,0,0,1-.14,36.48,8.94,8.94,0,0,1,2.93-5.12A90,90,0,0,0,107,158.65c1.59-8.61,4.5-16.91,6.68-25.39s3.64-17.33,2.24-26c2.66,11.61-.71,23.64-3.65,35.18S106.85,166.47,111.11,177.59Z"/><path class="cls-8" d="M85,145.25c.82,5.58.79,11.37,2.77,16.66s6.76,10.12,12.4,9.83c2.52-.13,5.6-1.05,7.17.92-5.51-8.28-6.12-18.83-5.72-28.77s1.61-20.07-.88-29.7a145.5,145.5,0,0,1-2.86,26.41,83.15,83.15,0,0,1,5-43.82,69.05,69.05,0,0,0-19.64,50.35Z"/><path class="cls-7" d="M96.75,102.53A36.72,36.72,0,0,1,90.91,108a42.51,42.51,0,0,1,7.2-9.45A61.47,61.47,0,0,0,83,124.83a66.81,66.81,0,0,1,9.5-16.21c-6.29,8-9.15,18.31-10.13,28.47-.7,7.31-.38,15.1,3.46,21.36A65.38,65.38,0,0,1,96.75,102.53Z"/><path class="cls-5" d="M98,151.82a40.49,40.49,0,0,0-1.47-4.91,38,38,0,0,1-2.57-12.26c-.24-5.05-1-11.59.14-17.19a10.33,10.33,0,0,0-.82,2.8c-.38,2.5-.12,5.08-.63,7.56-.61,3-2.3,5.68-2.38,8.69-.07,2.37.87,4.69.74,7.05-.11,2.08-1,4-1.59,6A17,17,0,0,0,91.43,163a11.58,11.58,0,0,1-3.3-7.54c-.63,3.85,1.15,7.83,4,10.5a21.21,21.21,0,0,0,10.44,4.91,36.72,36.72,0,0,1-4.48-15.3C98,154.34,98,153.08,98,151.82Z"/><path class="cls-5" d="M46.33,26l-.63.41"/><path class="cls-1" d="M15.61,74c-1.43,4-1.67,8.44-3.48,12.3C10.78,89.18,8.54,91.86,8.56,95,16,84.18,23.38,73.31,31.73,63.17c-3,3-8.16,2.34-11.74,4.65A11.87,11.87,0,0,0,15.61,74Z"/><path class="cls-1" d="M32.93,73.35a44.34,44.34,0,0,1,1.39,10.48,14.79,14.79,0,0,1-3.57,9.73c0-3.56-1.59-7-1.72-10.5A13,13,0,0,1,32.93,73.35Z"/><path class="cls-1" d="M25.63,94.93a27.33,27.33,0,0,1-3.37,11.67c-1.85,3.64-4.12,7.05-6,10.66A60.59,60.59,0,0,0,10,135.7c-2.43-3.37-2.45-7.87-2.2-12C8.4,114,10.06,104,15.27,95.77c3.18-5,7.57-9.19,10.47-14.36C24.14,85.66,25.72,90.39,25.63,94.93Z"/><path class="cls-7" d="M152.38,63.71c-1.33-6.08-5.22-11.36-9.92-15.46s-10.18-7.14-15.64-10.15c7.19,2.74,14.32,6.08,19.93,11.34-3.25-1.67-5.7-4.53-8.56-6.8-4.19-3.32-9.27-5.34-14.4-6.83s-10.4-2.5-15.52-4a23.36,23.36,0,0,1,15.53,1l-.1-.95a68.88,68.88,0,0,1,18,11.62,32.58,32.58,0,0,1,7.2,8.38C150.91,55.42,151.77,59.59,152.38,63.71Z"/><path class="cls-7" d="M102.72,62.67a19.81,19.81,0,0,0,10.15,4.79,51.87,51.87,0,0,0,11.35.48,48.22,48.22,0,0,1-18.07-.84c7.15,2.13,14.74,2.3,22.18,1.86s14.85-1.49,22.31-1.74l-26.31-1.55a112.14,112.14,0,0,0,23-.49l-21.52,0C118,65.13,110.09,65.09,102.72,62.67Z"/><path class="cls-8" d="M108.46,58.78a134.79,134.79,0,0,0,16.36,5.71c-1.14-4.71-5.46-7.91-9.74-10.19s-9-4.2-12.07-7.91a36.94,36.94,0,0,1,9.21.47l-6.34-3.38c6.58-2.17,13.77.56,19.77,4s11.75,7.81,18.55,9.2a79.88,79.88,0,0,0-30.38-21.54l11.53,1.71-10.83-3.65c-2.94-1-6.21-2-9.06-.72s-4.45,4.57-5.3,7.68c-1.57,5.69-1.76,12.07,1.09,17.25S110.58,66,116.14,64Z"/><path class="cls-1" d="M144.52,110.26c-.05,3.28-.53,6.56-.42,9.85s.88,6.68,3,9.19a12.8,12.8,0,0,0,1.63-9C148.27,117.21,145.72,113.14,144.52,110.26Z"/><path class="cls-1" d="M148.89,132.41c1.06,3.76,5.46,6.13,5.72,10a3.8,3.8,0,0,0,.15,1.17.88.88,0,0,0,.9.62c.45-.09.65-.61.73-1.06.57-3.29-1.25-6.47-3-9.29s-3.68-5.93-3.28-9.24C149.13,127.13,148.16,129.84,148.89,132.41Z"/><path class="cls-1" d="M174.6,171.84c-.93-5.19-4.48-9.47-8-13.37s-7.34-7.87-8.92-12.89c-1.69,5.68-.4,12.41,4,16.37,2,1.84,4.59,3,7,4.36S173.38,169.37,174.6,171.84Z"/><path class="cls-1" d="M160.06,142.34a3.56,3.56,0,0,0,.49,3.19,13.9,13.9,0,0,0,2.28,2.45,29,29,0,0,1,7.45,11.52c-.73-4.63-.78-9.38-2-13.89s-4.09-9-8.49-10.54a14.26,14.26,0,0,0,2.4,11.23"/><path class="cls-1" d="M154.33,129.93a9.36,9.36,0,0,0,1.86,3.84c2,2.16,5.4,2.08,8.34,1.83-2.79-3.13-3.94-7.35-5.55-11.22s-4.11-7.85-8.12-9.07A123.76,123.76,0,0,0,154.33,129.93Z"/><path class="cls-1" d="M153,113.26a6.93,6.93,0,0,1-2.62-1.51,3.28,3.28,0,0,0-2.82-.82A4.79,4.79,0,0,0,153,113.26Z"/><path class="cls-1" d="M162.79,117.45a1.94,1.94,0,0,0,1.52-.09,1.44,1.44,0,0,0,.37-1.77,4,4,0,0,0-1.32-1.43,53.33,53.33,0,0,0-12.77-7.28,46.36,46.36,0,0,0,5.17,6.43A15.35,15.35,0,0,0,162.79,117.45Z"/><path class="cls-1" d="M179.16,118c-2-1.87-4.78-2.63-7.47-3.14s-5.47-.83-7.93-2.05a10.38,10.38,0,0,0,2.77,4.45c1.69,1.34,4,1.49,6.19,1.26S177,117.79,179.16,118Z"/><path class="cls-1" d="M176.3,112a36.09,36.09,0,0,1-7.9-1.11,12,12,0,0,1-6.52-4.37C166.26,106.49,172,111.24,176.3,112Z"/><path class="cls-1" d="M150.37,104.52c3.65,0,7.46,0,10.74,1.64l-1.19.49-.06.66A33.12,33.12,0,0,0,150.37,104.52Z"/><path class="cls-1" d="M196.05,124.74a27.21,27.21,0,0,0-19.72-9.51c2,.44,2.94,2.67,4.67,3.72a10.32,10.32,0,0,0,3.49,1A29.24,29.24,0,0,1,196.05,124.74Z"/><path class="cls-7" d="M155,61.63s-.15-.45-.43-1.26c-.14-.41-.31-.9-.5-1.48s-.39-1.24-.71-1.94c-.62-1.4-1.23-3.11-2.2-4.89l-.7-1.38-.36-.71-.42-.7L148,46.35,146,43.57l-.46-.67-.5-.63-1-1.2c-1.21-1.62-2.52-2.89-3.54-4a18,18,0,0,0-1.46-1.45L138,34.52l-1-.92,1,.83,1.22,1a17.37,17.37,0,0,1,1.58,1.36,44.35,44.35,0,0,1,3.77,3.88l1,1.19c.18.2.35.41.53.62l.48.67,2,2.81,1.73,3,.41.72.35.73c.22.49.44,1,.66,1.43a43.24,43.24,0,0,1,2,5,16.09,16.09,0,0,1,.57,2l.39,1.52Z"/><path class="cls-7" d="M151.24,65.94l-.3.3a9.63,9.63,0,0,1-.9.8,13,13,0,0,1-3.87,2.13c-.45.15-.92.3-1.41.44s-1,.26-1.56.34c-.28,0-.55.11-.83.15l-.87.09c-.58.06-1.18.15-1.8.18-2.47.15-5.17.11-8,.26s-5.5.49-8,.66a47.65,47.65,0,0,1-6.56.11,24.9,24.9,0,0,1-4.36-.66c-.51-.12-.89-.26-1.16-.33l-.4-.12.41.09c.27.05.66.16,1.17.24a27.09,27.09,0,0,0,4.36.38,54.54,54.54,0,0,0,6.48-.37c2.44-.25,5.12-.61,8-.78s5.56-.07,8-.15c.61,0,1.19-.08,1.77-.11l.85-.06.82-.11c.54-.06,1-.18,1.54-.27s.95-.23,1.39-.36A13.51,13.51,0,0,0,150,66.94a8.51,8.51,0,0,0,.94-.73Z"/><path class="cls-7" d="M123.84,73.35l.81-.39a19.85,19.85,0,0,1,2.3-.9c.25-.09.52-.13.8-.2a7.86,7.86,0,0,1,.89-.15,10.91,10.91,0,0,1,2,0c1.39.1,2.87.43,4.4.69a21.12,21.12,0,0,0,7.89-.09l.72-.14.63-.17a10.18,10.18,0,0,0,1-.29l.85-.28-.81.4a9.8,9.8,0,0,1-1,.41l-.62.24-.71.22a17.85,17.85,0,0,1-8.12.48c-1.57-.27-3-.65-4.34-.81a11.09,11.09,0,0,0-1.88-.09,4.63,4.63,0,0,0-.85.08,5,5,0,0,0-.79.12,22.52,22.52,0,0,0-2.34.63Z"/><path class="cls-7" d="M121.66,61.24l-.59-.81-.71-.92a8.42,8.42,0,0,0-1.08-1.07,6.05,6.05,0,0,0-1.53-1,17,17,0,0,0-2-.71c-.72-.23-1.51-.44-2.28-.77l-1.19-.51-1.16-.63C109.59,54,108.22,53,107,52.14a32.34,32.34,0,0,1-3.19-2.53c-.43-.38-.78-.77-1.11-1.1s-.56-.64-.76-.89l-.59-.82.68.73c.23.23.52.49.84.81s.74.63,1.2,1c.9.7,2,1.46,3.3,2.27s2.67,1.74,4.17,2.6l1.12.61,1.12.51c.74.34,1.49.57,2.21.83a17,17,0,0,1,2,.86,6.1,6.1,0,0,1,1.55,1.16,7.62,7.62,0,0,1,1,1.21c.25.38.45.72.62,1Z"/><path class="cls-7" d="M123.44,138.83l.37-1.05c.12-.34.26-.75.39-1.25s.32-1,.45-1.66c.07-.31.15-.64.23-1s.12-.7.19-1.06c.15-.74.23-1.53.34-2.37a46.92,46.92,0,0,0,.25-5.46,69.67,69.67,0,0,0-.91-9.93c-.2-1.26-.38-2.28-.51-3S124,111,124,111l.33,1.07c.21.69.48,1.69.78,3a46.31,46.31,0,0,1,1.31,10,35.9,35.9,0,0,1-.38,5.56c-.15.84-.27,1.65-.47,2.39-.09.37-.17.72-.27,1.06l-.3,1c-.18.63-.41,1.17-.59,1.65a12.5,12.5,0,0,1-.52,1.2Z"/><path class="cls-7" d="M116.14,155.34s.61-1.75,1.65-4.57,2.57-6.68,4.21-10.92c.37-1.08.73-2.12,1.07-3.14.14-.51.28-1,.41-1.51s.23-1,.34-1.47a39,39,0,0,0,.66-5.18c.07-1.49.06-2.7,0-3.54l-.07-1.3s.07.46.19,1.29a29.91,29.91,0,0,1,.26,3.56,33.08,33.08,0,0,1-.41,5.29c-.09.49-.19,1-.29,1.51s-.25,1-.38,1.56c-.33,1-.69,2.11-1.06,3.2-1.66,4.29-3.37,8-4.58,10.8S116.14,155.34,116.14,155.34Z"/><path class="cls-9" d="M124.46,41.18s-.87-.32-2.23-.91l-2.4-1-1.39-.63L116.93,38c-.51-.22-1-.47-1.49-.66L114,36.78l-1.27-.53a11.78,11.78,0,0,0-1.13-.39,5.92,5.92,0,0,0-1.68-.28,2.88,2.88,0,0,0-.48,0l-.16,0,.15-.06a2.75,2.75,0,0,1,.47-.14,5.29,5.29,0,0,1,1.8-.06,10.33,10.33,0,0,1,1.22.23l1.36.38,1.49.46c.51.17,1,.41,1.54.63l1.52.69c.48.24.93.5,1.36.73.86.49,1.63.93,2.25,1.34C123.71,40.64,124.46,41.18,124.46,41.18Z"/><path class="cls-9" d="M140.94,55.72l-.67-.61c-.43-.38-1-1-1.8-1.65-1.52-1.4-3.72-3.2-6.2-5.1s-4.83-3.52-6.58-4.6a17.61,17.61,0,0,0-2.09-1.26,3.62,3.62,0,0,0-.61-.26l-.22-.08c0-.25,5,1.53,10.1,5.4a39.89,39.89,0,0,1,5.95,5.55c.71.76,1.2,1.45,1.57,1.9Z"/><path class="cls-9" d="M152.31,60.7s-1-1.17-2.58-3.09L147,54.26c-.52-.64-1.11-1.26-1.69-1.94s-1.16-1.39-1.81-2.06l-1.9-2c-.31-.32-.59-.65-.9-.94s-.6-.59-.9-.87a31.76,31.76,0,0,0-3.33-2.74c-.49-.36-1-.65-1.38-.91s-.79-.46-1.1-.62l-1-.48,1,.34c.33.11.72.29,1.18.48a16.72,16.72,0,0,1,1.51.77,24.4,24.4,0,0,1,3.62,2.53c.32.26.63.55,1,.83s.63.62.95.93l2,2c.67.68,1.23,1.43,1.81,2.12s1.13,1.35,1.62,2c1,1.34,1.83,2.54,2.52,3.58C151.5,59.39,152.31,60.7,152.31,60.7Z"/><path class="cls-9" d="M139.48,55.52l-1.06.11c-.68.07-1.68.15-2.91.18-.62,0-1.29,0-2,0s-1.5-.11-2.32-.2A19.27,19.27,0,0,1,126,54.12a30.71,30.71,0,0,1-4.54-2.8c-.66-.47-1.28-.93-1.87-1.33s-1.14-.77-1.65-1.1a15.68,15.68,0,0,0-1.43-.8c-.21-.11-.41-.23-.59-.31l-.53-.21-1-.39,1,.24.56.14c.2.06.41.15.64.24a11.86,11.86,0,0,1,1.54.66c.55.27,1.16.58,1.78,1s1.28.77,2,1.2a45.81,45.81,0,0,0,4.49,2.6,23.17,23.17,0,0,0,4.9,1.54c.78.13,1.53.28,2.24.35s1.37.15,2,.2c1.22.1,2.21.14,2.9.16Z"/><path class="cls-9" d="M115.46,62.93l-.66-.21c-.42-.16-1-.34-1.78-.66a28.67,28.67,0,0,1-5.48-3,28.49,28.49,0,0,1-4.63-4.21c-.54-.6-.92-1.13-1.2-1.48l-.42-.55,2,1.67c1.22,1,2.93,2.35,4.87,3.76s3.78,2.57,5.13,3.39Z"/><path class="cls-9" d="M121.9,67.58s-.74.14-2,.28a18.31,18.31,0,0,1-9.37-1.27c-1.14-.46-1.81-.79-1.81-.79s.76.09,1.94.31,2.82.4,4.6.74c1.81.14,3.43.47,4.63.51S121.9,67.58,121.9,67.58Z"/><path class="cls-9" d="M122.34,43.2l-.77-.34c-.5-.22-1.2-.57-2.11-.9a39.45,39.45,0,0,0-7.16-2.13,43.61,43.61,0,0,0-7.43-.82,6.65,6.65,0,0,0-2.22.29,3.46,3.46,0,0,0-.57.24l-.2.1.17-.13a2.83,2.83,0,0,1,.53-.35,6.25,6.25,0,0,1,2.26-.65,25.77,25.77,0,0,1,7.65.34,24.3,24.3,0,0,1,7.19,2.66,18.15,18.15,0,0,1,2,1.22Z"/><path class="cls-9" d="M121.68,109.84l.39,2.57c.06.42.14.88.2,1.38s.1,1.06.15,1.66.11,1.23.18,1.9.05,1.39.08,2.14a66.79,66.79,0,0,1-3.3,23.16C118,147,116.3,151,115,154.76a59.3,59.3,0,0,0-2.81,10.06,34.59,34.59,0,0,0-.55,7c0,.83.11,1.48.14,1.92l.06.67-.1-.67c-.05-.43-.2-1.07-.25-1.91a32.34,32.34,0,0,1,.2-7.11,54.54,54.54,0,0,1,2.51-10.25c1.21-3.78,2.84-7.82,4.21-12.15a73.36,73.36,0,0,0,2.95-12.43,75.67,75.67,0,0,0,.8-10.42c0-.74,0-1.45,0-2.12s-.06-1.31-.08-1.9,0-1.15-.07-1.65-.09-1-.12-1.39Z"/><path class="cls-9" d="M118.29,133.31l.07-1.24c0-.4.07-.88.1-1.45s.12-1.2.11-1.91a86.86,86.86,0,0,0-.36-11,87.13,87.13,0,0,0-1.91-10.87c-.14-.7-.34-1.31-.49-1.85s-.29-1-.4-1.39c-.21-.77-.32-1.2-.32-1.2l.47,1.14c.15.37.33.83.55,1.35s.47,1.12.67,1.81a53,53,0,0,1,2.42,10.9,52.3,52.3,0,0,1-.14,11.17c0,.72-.19,1.35-.28,1.91s-.19,1-.26,1.43Z"/><path class="cls-9" d="M86.45,157.07a5.38,5.38,0,0,1-1-2.11,8.74,8.74,0,0,1-.07-2.75,19.39,19.39,0,0,1,.85-3.52,16.14,16.14,0,0,0,.84-4.19,19,19,0,0,0-.85-4.83,11.89,11.89,0,0,1-.35-2.78,9.4,9.4,0,0,1,.49-2.91,26.23,26.23,0,0,1,2.74-5.38,22.66,22.66,0,0,0,2.55-5.22,41.8,41.8,0,0,0,1-5.37,36.51,36.51,0,0,1,2.56-9.07c1-2.48,2-4.4,2.71-5.73S99,101.15,99,101.15s-.33.76-.94,2.13-1.47,3.34-2.38,5.84a38.84,38.84,0,0,0-2.2,9,36.38,36.38,0,0,1-.93,5.52A22.25,22.25,0,0,1,90,129.11a27.15,27.15,0,0,0-2.68,5.17,8.68,8.68,0,0,0-.5,2.63,11.35,11.35,0,0,0,.28,2.59,19.18,19.18,0,0,1,.7,5,16,16,0,0,1-1,4.31,21.82,21.82,0,0,0-1,3.42,8.46,8.46,0,0,0-.08,2.67,4.41,4.41,0,0,0,.23.95,3.26,3.26,0,0,0,.28.66Z"/><path class="cls-9" d="M99.46,151.45l-.27-.54c-.18-.35-.47-.86-.77-1.54a37.88,37.88,0,0,1-2.24-6c-.2-.65-.32-1.35-.5-2.06s-.28-1.49-.38-2.28a24,24,0,0,1-.21-2.46c-.06-.85,0-1.72,0-2.62,0-1.78.15-3.65.28-5.57s.28-3.92.48-6A86,86,0,0,1,97.61,111a50,50,0,0,1,3-9,36.54,36.54,0,0,1,3.11-5.56l1.39-1.88-1.26,2a41.36,41.36,0,0,0-2.78,5.68,54.59,54.59,0,0,0-2.63,9,111.49,111.49,0,0,0-1.63,11.36c-.19,2-.36,4-.52,5.94s-.31,3.77-.39,5.53c0,.88-.07,1.74,0,2.56s.07,1.64.12,2.42.19,1.52.29,2.24.24,1.4.41,2a40,40,0,0,0,1.89,6c.26.71.52,1.23.67,1.6Z"/><path class="cls-9" d="M99.64,165.8s-.14-.54-.38-1.52c-.11-.49-.27-1.09-.42-1.8s-.28-1.51-.44-2.4a60.21,60.21,0,0,1-.68-14.15c.13-1.38.22-2.74.43-4,.1-.64.19-1.28.28-1.9s.23-1.22.34-1.81c.46-2.35.88-4.44,1.08-6.23a11.79,11.79,0,0,0,.12-1.27c0-.4.07-.78.08-1.14,0-.71,0-1.33,0-1.83-.1-1-.15-1.56-.15-1.56l.3,1.55c.08.5.11,1.12.18,1.84,0,.36,0,.75,0,1.16s0,.84,0,1.29a62.23,62.23,0,0,1-.75,6.33c-.09.59-.18,1.19-.27,1.81s-.15,1.24-.23,1.88c-.18,1.28-.26,2.62-.38,4a84,84,0,0,0,.17,14c.1.9.19,1.71.26,2.42s.2,1.32.27,1.82C99.56,165.25,99.64,165.8,99.64,165.8Z"/><path class="cls-9" d="M129.51,117.54s-.24-.87-.61-2.28a41.57,41.57,0,0,0-2-5.22,40.63,40.63,0,0,0-2.8-4.85l-1.39-1.92.49.42a15.74,15.74,0,0,1,1.28,1.18,19,19,0,0,1,3.32,4.74,18.61,18.61,0,0,1,1.59,5.55,17.38,17.38,0,0,1,.12,1.75Z"/><path class="cls-9" d="M142.36,75l-.44.58a7.27,7.27,0,0,1-.53.66l-.81.79c-.31.29-.69.55-1.08.86s-.88.53-1.36.82a16.29,16.29,0,0,1-1.63.69,11.9,11.9,0,0,1-1.85.44,11.41,11.41,0,0,1-3.65,0c-1.1-.16-2.06-.41-2.86-.59s-1.45-.33-1.9-.41l-.7-.15h.71a14.86,14.86,0,0,1,2,.08,25,25,0,0,0,6.27.11,14.55,14.55,0,0,0,5.78-2.21l.89-.63c.27-.19.46-.4.64-.54Z"/><path class="cls-9" d="M149.77,67s0,.23,0,.64a7.29,7.29,0,0,1-.37,1.73,16.3,16.3,0,0,1-3,5,28,28,0,0,1-2.15,2.35c-.72.67-1.43,1.21-2,1.67-1.26.81-2.05,1.24-2.05,1.24s.66-.65,1.72-1.62c.48-.55,1.09-1.16,1.72-1.87s1.31-1.52,2-2.4a29,29,0,0,0,3.32-4.52,8.8,8.8,0,0,0,.67-1.56Z"/></g></g></svg>