<svg xmlns="http://www.w3.org/2000/svg" viewBox="0 0 257.34 180.92"><defs><style>.cls-1{fill:#027180;}.cls-2{fill:#dea3a4;}.cls-3{fill:#8bc9b5;}.cls-4{fill:#fcefd6;}.cls-5{font-size:21px;fill:#4f4f4f;font-family:MyriadPro-Semibold, Myriad Pro;font-weight:600;letter-spacing:0.25em;}.cls-6{letter-spacing:0.24em;}.cls-7{letter-spacing:0.22em;}.cls-8{letter-spacing:0.24em;}.cls-9{letter-spacing:0.24em;}.cls-10{letter-spacing:0.22em;}.cls-11{font-size:18px;letter-spacing:0.25em;}</style></defs><title>Logo_1</title><g id="Calque_2" data-name="Calque 2"><g id="svg88"><path class="cls-1" d="M99.32,46.71,81,0H60.38L2,147.62H28.74L70.05,31.27l8.88,24.9A36.52,36.52,0,0,1,99.32,46.71Z"/><polygon class="cls-1" points="121.84 104.24 96.07 104.24 111.55 147.62 138.83 147.62 121.84 104.24"/><polygon class="cls-2" points="138.83 123.85 210.45 23.77 139.96 23.77 139.96 0 240.2 0 240.2 23.77 168.01 123.85 241.34 123.85 241.34 147.62 138.83 147.62 138.83 123.85"/><g id="g3771"><path class="cls-3" d="M59.87,86.56a52.2,52.2,0,0,1,5.06-7.9,59.86,59.86,0,0,1,47.91-23.92h30.49a29.55,29.55,0,0,0,21.12-8.85,1.07,1.07,0,0,1,1.28-.35c.5.26.29.89.08,1.31a52.63,52.63,0,0,1-5.06,7.89,59.81,59.81,0,0,1-47.91,23.92H82.35a29.56,29.56,0,0,0-21.13,8.85,1.06,1.06,0,0,1-1.27.36c-.5-.26-.28-.9-.08-1.31"/><path class="cls-4" d="M165.73,64.82a1.07,1.07,0,0,0-1.28.36c-3.06,3.11-23,22.91-51.61,22.91H82.35c-6.7,0-13.1,3.9-17.42,9.86a60.72,60.72,0,0,0-5.06,7.89c-.21.42-.42,1.06.08,1.32a1.06,1.06,0,0,0,1.27-.36,29.58,29.58,0,0,1,21.13-8.85h30.49A59.79,59.79,0,0,0,160.74,74a52,52,0,0,0,5.07-7.89c.21-.4.42-1.06-.08-1.31"/></g><text class="cls-5" transform="translate(0 175.67)">ARO<tspan class="cls-6" x="55.52" y="0">MA</tspan><tspan x="96.28" y="0">-</tspan><tspan class="cls-7" x="108.04" y="0">Z</tspan><tspan class="cls-8" x="124.61" y="0">ON</tspan><tspan class="cls-9" x="163.88" y="0">E</tspan><tspan class="cls-8" x="179.72" y="0">.</tspan><tspan class="cls-10" x="189.82" y="0">C</tspan><tspan class="cls-8" x="206.76" y="0">OM</tspan><tspan class="cls-11" x="249.21" y="0"> </tspan></text></g></g></svg>