<svg xmlns="http://www.w3.org/2000/svg" viewBox="0 0 1252.05 103.46"><defs><style>.cls-1{fill:#8bc9b5;}.cls-2{fill:#027180;}.cls-3{fill:#dea3a4;}.cls-4{fill:#fcefd6;}</style></defs><title>Logo_2</title><g id="Calque_2" data-name="Calque 2"><g id="svg88"><g id="g3806"><g id="g3767"><rect id="rect4" class="cls-1" x="1146.21" y="93.07" width="6.68" height="7.89"/><path class="cls-1" d="M1175.1,77c0-5.26-1.07-7.54-4.36-7.54-3.69,0-4.54,3.7-4.54,13.91,0,10.93,1.51,12.89,4.65,12.89,2.63,0,4.55-1.36,4.55-9.15h7.29c0,7.79-1.93,14.51-11.49,14.51-10.92,0-12.29-7.78-12.29-18.76s1.37-18.76,12.29-18.76c10.41,0,11.18,7.64,11.18,12.9Z"/><path class="cls-1" d="M1200.88,64.14c10.92,0,12.29,7.79,12.29,18.77s-1.37,18.75-12.29,18.75-12.29-7.78-12.29-18.75,1.36-18.77,12.29-18.77m0,32.16c4.29,0,5-3.68,5-13.39s-.71-13.41-5-13.41-5,3.75-5,13.41.7,13.39,5,13.39"/><polygon class="cls-1" points="1238.85 100.96 1233.18 100.96 1226.76 72.13 1226.66 72.13 1226.66 100.96 1219.98 100.96 1219.98 64.85 1230.8 64.85 1235.96 90.34 1236.06 90.34 1241.28 64.85 1252.05 64.85 1252.05 100.96 1245.38 100.96 1245.38 72.13 1245.27 72.13 1238.85 100.96"/></g><g id="g3726"><path class="cls-2" d="M38.92,2.51H52.69L91.23,101H73L64.7,78.43H25.9L17.82,101H0ZM59.14,63.42l-13.78-40-14,40.05Z"/><path class="cls-2" d="M123.63,2.51h31.08c17.19,0,33.36,6.12,33.36,28.23,0,14.18-7.45,24.61-20.72,26.7L191.11,101H171.9L151.17,59.24H139.55V101H123.63Zm28.3,41.72c9,0,19.46-.84,19.46-13.63,0-11.68-9.85-13.07-18.07-13.07H139.55v26.7Z"/><path class="cls-2" d="M266,0C294-.55,313.66,20,313.66,51.6c0,30.73-19.71,51.3-47.64,51.86-27.54,0-47.26-20.57-47.26-51.31C218.76,20.59,238.48,0,266,0m.13,87.6C284.72,87.61,297,72,297,51c0-19.6-12.25-35.18-30.83-35.18S235.44,31.44,235.44,51c0,21,12.26,36.57,30.71,36.57"/><polygon class="cls-2" points="388.64 100.96 361.47 19.2 361.22 19.2 361.22 100.96 346.06 100.96 346.06 2.51 370.32 2.51 394.2 71.48 418.34 2.51 442.35 2.51 442.35 100.96 427.18 100.96 427.18 19.2 426.93 19.2 399.76 100.96 388.64 100.96"/><path class="cls-2" d="M513.66,2.51h13.77L566,101H547.78l-8.34-22.53H500.65L492.56,101H474.74Zm20.22,60.91-13.78-40-14,40.05Z"/></g><g id="g3732"><polygon class="cls-3" points="734.45 85.11 782.21 18.36 735.2 18.36 735.2 2.51 802.05 2.51 802.05 18.36 753.91 85.11 802.81 85.11 802.81 100.96 734.45 100.96 734.45 85.11"/><path class="cls-3" d="M880.67,0c27.93-.56,47.64,20,47.64,51.59,0,30.73-19.71,51.3-47.64,51.86-27.55,0-47.26-20.57-47.26-51.31C833.41,20.59,853.12,0,880.67,0m.12,87.6c18.59,0,30.84-15.57,30.84-36.57,0-19.6-12.25-35.18-30.84-35.18-18.44,0-30.7,15.58-30.7,35.18,0,21,12.26,36.57,30.7,36.57"/><polygon class="cls-3" points="977.09 25.46 976.83 25.46 976.83 100.96 960.91 100.96 960.91 2.51 982.01 2.51 1025.36 75.66 1025.61 75.93 1025.36 75.93 1025.61 75.66 1025.61 2.51 1041.53 2.51 1041.53 100.96 1021.32 100.96 977.09 25.46"/><polygon class="cls-3" points="1137.25 100.96 1075.71 100.96 1075.71 2.51 1134.98 2.51 1134.98 18.36 1091.64 18.36 1091.64 42.56 1132.7 42.56 1132.7 58.41 1091.64 58.41 1091.64 85.11 1137.25 85.11 1137.25 100.96"/></g><g id="g3771"><path class="cls-1" d="M600.51,61a47.84,47.84,0,0,1,4.58-7.16,54.28,54.28,0,0,1,43.43-21.68h27.65a26.76,26.76,0,0,0,19.14-8,1,1,0,0,1,1.16-.31c.46.23.27.81.07,1.19A47.58,47.58,0,0,1,692,32.15a54.21,54.21,0,0,1-43.43,21.68H620.88a26.81,26.81,0,0,0-19.15,8,1,1,0,0,1-1.15.32c-.46-.24-.26-.82-.07-1.19"/><path class="cls-4" d="M696.47,41.28a1,1,0,0,0-1.16.33c-2.78,2.82-20.89,20.77-46.79,20.77H620.88c-6.07,0-11.87,3.53-15.79,8.94a55.07,55.07,0,0,0-4.59,7.15c-.18.38-.38,1,.08,1.2a1,1,0,0,0,1.15-.33,26.84,26.84,0,0,1,19.15-8h27.64A54.22,54.22,0,0,0,692,49.62a47.51,47.51,0,0,0,4.59-7.14c.2-.37.39-1-.07-1.2"/></g></g></g></g></svg>