<svg id="Capa_1" data-name="Capa 1" xmlns="http://www.w3.org/2000/svg" viewBox="0 0 290.65 244.31"><title>speech-bubble</title><path d="M348.18,285.39l11.3-10.6,1.4-1.3.7-.7.4-.3.2-.2.7-.7,2.7-2.8,1.3-1.4.7-.7.8-1,3.2-4a82,82,0,0,0,15-34.8,82.91,82.91,0,0,0-2.1-38,84.22,84.22,0,0,0-19.2-33.4c-17.7-19.1-45.2-29.3-71.4-25.8a85.28,85.28,0,0,0-37,13.7,93.58,93.58,0,0,0-7.9,6.2l-4.3,4-.7-.8-2.8-2.5a92.37,92.37,0,0,0-7.5-5.8,80.6,80.6,0,0,0-35.6-13.8,84.69,84.69,0,0,0-47.9,4.8,59.64,59.64,0,0,0-8.8,4.3,76,76,0,0,0-8.2,5.2,63.44,63.44,0,0,0-7.6,6.1l-1.8,1.6-.5.4-.1.1-.8.8-.2.2-.6.7-2.6,2.8a84.49,84.49,0,0,0-18.8,34.6,85.53,85.53,0,0,0,14.7,74.6,90.57,90.57,0,0,0,6.4,7.5l1.6,1.7,1.3,1.3,2.7,2.7,10.8,10.6,21.8,21q21.9,20.85,44.4,41.1c17,15.4,33.7,25.6,38.9,17.9,1.5-2.2,1.8-5.3,1-9a49.37,49.37,0,0,0,8.9-3.9C284.28,340.89,317.18,314.59,348.18,285.39Zm-104.9,56.5a27.35,27.35,0,0,0-4.9,7.3,112.16,112.16,0,0,0-14-18.4c-14.4-15.5-28.8-31.1-43.2-46.6l-22-23-11-11.3a55.82,55.82,0,0,1-7.3-9.5,51.7,51.7,0,0,1-6.5-37.1,52.53,52.53,0,0,1,7.2-17.8l1.2-1.7a12.52,12.52,0,0,1,1.4-2l3.6-4.1,3.6-3.4,3.9-3a52.35,52.35,0,0,1,38-8.9,53.27,53.27,0,0,1,19,6.7,44.14,44.14,0,0,1,3.9,2.5,46.75,46.75,0,0,1,4.5,3.6l1.9,1.7,2.3,2.2,4.6,4.4c1.7,2.1,3.5,4.2,5.2,6.3l.1.1a12.26,12.26,0,0,0,17.4,1.4l1.8-1.5,8.6-7.3,4.3-3.7a20.23,20.23,0,0,1,1.9-1.6l1.8-1.3a54.25,54.25,0,0,1,15.1-7.8,52.62,52.62,0,0,1,32.6.2,49.06,49.06,0,0,1,7.4,3.3,32.4,32.4,0,0,1,3.5,2.1l1.7,1.1,1.3,1a20,20,0,0,1,3,2.5l2.1,1.9,1,1h0l.2.2,2.6,3c.9,1,1.5,2.2,2.3,3.2a48,48,0,0,1-4.3,59.2l-.9,1.1-.5.5-.1.2-1.6,1.6-4,4-8,8.1-16,16.1C286.58,299.69,265.08,321,243.28,341.89Z" transform="translate(-97.21 -129.01)"/></svg>