<svg xmlns="http://www.w3.org/2000/svg" data-name="Layer 1" viewBox="0 0 100 125" x="0px" y="0px"><title>Artboard 146</title><path d="M11.76,78.11a30.76,30.76,0,0,0,1,3.14A19,19,0,0,0,31.9,93.49l11.87-.29,23.74-.71h0c1.24,0,2.22-.79,2.22-1.72s-1-1.69-2.22-1.72l-.35,0-23.65-.7L31.68,88a13.46,13.46,0,0,1-9.13-3.15,13.23,13.23,0,0,1-3-3.7A14.41,14.41,0,0,1,18.59,79l-.32-1.15-.33-1.44-2.7-11.52L10.81,46.39q39.72.22,79.44-.41L84.94,69.3l-1.52,6.83a17.92,17.92,0,0,1-2,5.93,14.06,14.06,0,0,1-9.74,6.79h0a2.23,2.23,0,0,0-2,1.92c0,.9,1,1.74,2.46,1.58l.37,0a17.93,17.93,0,0,0,12.76-8.17,23.15,23.15,0,0,0,2.8-7.06L90,70.38,97.3,43.54a3.86,3.86,0,0,0,.11-.77,3.12,3.12,0,0,0-3.06-3.17h-.13c-6.27-.11-12.54-.13-18.82-.21A89.17,89.17,0,0,0,64,6.54h0c-.11-.17-.9-.07-1.79.23s-1.57.68-1.56.89v0a89.29,89.29,0,0,0,9.8,31.63q-20.17-.23-40.36-.21A89,89,0,0,0,39.79,7.66h0c0-.21-.68-.6-1.57-.89s-1.67-.4-1.78-.23l0,0A89.28,89.28,0,0,0,25.08,39.13c-6.28,0-12.57,0-18.86,0H6.14a3.69,3.69,0,0,0-.86.11,3.6,3.6,0,0,0-2.57,4.39l6,23Z"/><circle cx="30.22" cy="58.77" r="4"/><circle cx="70.22" cy="58.77" r="4"/><text x="0" y="115" fill="#000000" font-size="5px" font-weight="bold" font-family="'Helvetica Neue', Helvetica, Arial-Unicode, Arial, Sans-serif">Created by Gregor Cresnar</text><text x="0" y="120" fill="#000000" font-size="5px" font-weight="bold" font-family="'Helvetica Neue', Helvetica, Arial-Unicode, Arial, Sans-serif">from the Noun Project</text></svg>