<svg xmlns="http://www.w3.org/2000/svg" data-name="Layer 1" width="95.69892476426196" height="103.49462382131014"><rect id="backgroundrect" width="100%" height="100%" x="0" y="0" fill="none" stroke="none" class="" style=""/><title>Artboard 63</title><g class="currentLayer" style=""><title>Layer 1</title><path d="M6.73,58.38v1.79l.1,14.36.07,7.18L7,85.3v.89L7,87.46A11.15,11.15,0,0,0,7.63,90a11.33,11.33,0,0,0,7,6.93,11,11,0,0,0,2.47.55c.42,0,.84,0,1.26.06h.91l3.59-.06q28.71-.49,57.4-1.48a1.77,1.77,0,1,0,0-3.45h-.34q-28.68-1-57.4-1.48L19,90.94a5.28,5.28,0,0,1-2.28-.39,4.67,4.67,0,0,1-2.64-3c-.32-.87-.08-3.91-.11-6.15L14,74.2l.09-14.36,0-1.72a3.82,3.82,0,0,1,.13-.95,4.32,4.32,0,0,1,4.34-3.25q28.71,0,57.42-.48l6.89-.1a5,5,0,0,1,3.75,2.12,5.25,5.25,0,0,1,.85,2.09c.11.56.09,2.12.13,3.22l.17,7.17.4,14.35.11,3.59a6.37,6.37,0,0,1-.38,2.7,6.15,6.15,0,0,1-3.86,3.64h0a2.31,2.31,0,0,0-1.64,2c0,.92,1.09,1.76,2.57,1.42l.39-.09a10,10,0,0,0,6.38-5.74,11.1,11.1,0,0,0,.78-4.25L92.65,82,93,67.62l.18-7.18a25,25,0,0,0-.08-4.07,10.75,10.75,0,0,0-1.8-4.51A11,11,0,0,0,83,47.14L76.32,47c.24-4,.48-8.09.72-12.12.11-2.39.3-4.59.2-7.36a28.8,28.8,0,0,0-1.69-7.79A27,27,0,0,0,50.32,2.51,27.37,27.37,0,0,0,35,7.34a27.2,27.2,0,0,0-9.76,12.57,27.81,27.81,0,0,0-1.62,7.78c-.1,2.77.11,4.94.21,7.34q.34,5.74.7,11.51c-2.12,0-4.22,0-6.35,0A11.69,11.69,0,0,0,7,55.85,13.56,13.56,0,0,0,6.73,58.38ZM44.46,46.61c.49-4.34.9-8.69,1.17-13l.11-2c0-.62.06-1.47.12-1.72a4.8,4.8,0,0,1,.86-2.05,4.57,4.57,0,0,1,7.41.05,4.64,4.64,0,0,1,.83,2c.1.87.14,2.53.23,3.76.26,4.36.66,8.72,1.15,13.08C52.39,46.69,48.42,46.64,44.46,46.61ZM29,34.86c.13-2.32.2-4.83.45-6.77a23.78,23.78,0,0,1,1.77-5.88,21.1,21.1,0,0,1,38.4.14,22.73,22.73,0,0,1,1.73,5.89c.25,1.93.3,4.48.43,6.79l.72,11.91-12-.15c.49-4.4.89-8.81,1.16-13.22l.11-2a21.25,21.25,0,0,0,.06-2.27,11.22,11.22,0,0,0-1.7-5.43A11.43,11.43,0,0,0,40.66,24,11,11,0,0,0,39,29.44c0,1.79.11,2.79.18,4.22.27,4.31.67,8.63,1.16,12.94q-6,0-12.07-.05Q28.66,40.7,29,34.86Z" id="svg_1" class="" fill-opacity="1" fill="#696969"/></g></svg>