<svg xmlns="http://www.w3.org/2000/svg" xmlns:xlink="http://www.w3.org/1999/xlink" version="1.1" style="enable-background:new 0 0 92.516 92.516;" xml:space="preserve" width="92.516" height="92.516"><rect id="backgroundrect" width="100%" height="100%" x="0" y="0" fill="none" stroke="none"/>
















<g class="currentLayer" style=""><title>Layer 1</title><g id="svg_1" class="selected" fill-opacity="1" fill="#7389ab">
	<path d="M55.443,25.246c1.012,0.041,1.812,0.108,2.61,0.101c4.799-0.049,9.602-0.271,14.393-0.109   c2.531,0.085,5.056,0.753,7.554,1.294c1.881,0.407,3.186,1.728,4.194,3.296c0.941,1.462,1.801,2.979,2.657,4.494   c1.58,2.798,2.314,5.85,2.477,9.027c0.285,5.544,0.506,11.091,0.729,16.638c0.05,1.25,0.23,2.269,1.199,3.329   c1.396,1.526,1.343,3.69,1.173,5.678c-0.094,1.092-1.035,1.297-2.053,1.336c-2.551,0.098-5.099,0.296-7.681,0.456   c-2.325,5.212-6.725,6.396-11.612,6.089c-4.614-0.291-6.85-3.526-8.075-7.975c-12.519,0.425-25.086-0.231-37.831,0.991   c-2.311,4.682-6.195,6.506-11.396,5.53c-4.063-0.762-6.227-3.47-7.241-7.319c-1.462,0.157-2.845,0.236-4.2,0.472   c-1.283,0.224-1.874-0.433-2.173-1.488c-0.155-0.546-0.174-1.146-0.167-1.721c0.129-10.94,0.302-21.881,0.393-32.822   c0.034-4.051-0.113-8.103-0.187-12.154c-0.018-0.993-0.098-1.985-0.099-2.979c-0.001-1.049,0.844-1.796,1.576-1.396   c2.228,1.217,4.566,0.693,6.819,0.68c13.085-0.077,26.169-0.279,39.253-0.49c1.89-0.03,3.784-0.284,5.662-0.539   c1.473-0.199,2.008-0.016,2.195,1.469c0.175,1.383,0.067,2.805,0.034,4.208C55.621,22.565,55.523,23.789,55.443,25.246z    M6.874,61.531c0.562-0.813,1.234-1.572,1.66-2.452c0.798-1.65,2.1-2.5,3.834-2.812c1.302-0.233,2.598-0.563,3.91-0.668   c4.197-0.335,7.244,1.552,8.864,5.387c0.253,0.598,0.477,1.207,0.762,1.935c8.916-0.293,17.733-0.581,26.825-0.88   c-0.034-4.111-0.066-7.94-0.1-11.9c-1.672-0.106-3.074-0.292-4.473-0.269c-7.62,0.128-15.241,0.249-22.858,0.486   c-5.962,0.186-11.918,0.539-17.876,0.813c-1.637,0.075-3.281,0.1-4.993,1.252c3.179-0.175,6.075-0.334,8.97-0.493   c0.016,0.173,0.031,0.345,0.046,0.517c-0.45,0.075-0.898,0.158-1.349,0.224c-2.209,0.322-4.427,0.592-6.625,0.978   c-1.373,0.24-1.632,1.134-1.121,2.533c2.337-0.02,4.6-0.038,6.862-0.057c0.015,0.144,0.029,0.288,0.043,0.433   c-2.299,0.374-4.599,0.747-7.06,1.147c0.106,1.042,0.186,1.819,0.278,2.712c1.264,0.047,2.33,0.094,3.397,0.122   c0.695,0.02,1.085,0.322,1.061,1.053c-1.463,0.013-2.927,0.024-4.479,0.038c0.009,1.051,0.015,1.755,0.022,2.637   c1.355-0.012,2.556-0.022,3.809-0.032C6.487,63.305,6.68,62.419,6.874,61.531z M2.247,49.525c4.49-0.179,8.686-0.384,12.885-0.501   c4.219-0.118,8.441-0.114,12.661-0.228c4.21-0.113,8.421-0.253,12.627-0.479c4.148-0.223,8.321-0.144,12.548-0.555   c0.108-4.914,0.21-9.503,0.319-14.429c-3.17,0.026-6.043,0.144-8.911,0.058c-11.58-0.347-23.154-0.3-34.724,0.285   c-1.98,0.101-3.962,0.224-5.935,0.426c-1.28,0.132-1.334,0.919-0.819,2.083c2.658-0.022,5.279-0.044,7.901-0.066   c0.005,0.106,0.011,0.213,0.016,0.319c-2.754,0.314-5.508,0.629-8.359,0.955c0.01,1.25,0.019,2.27,0.029,3.515   c2.863,0.053,5.563,0.102,8.263,0.151c-0.006,0.108-0.013,0.216-0.019,0.324C7.965,41.667,5.2,41.95,2.445,42.231   c0.009,1.088,0.015,1.805,0.021,2.556c2.755-0.023,5.38-0.045,8.006-0.066c0.003,0.089,0.007,0.179,0.011,0.267   c-2.666,0.411-5.332,0.821-8.119,1.251C2.325,47.322,2.294,48.208,2.247,49.525z M2.498,18.953   c-0.259,1.574,0.083,2.216,1.344,2.153c0.743-0.037,1.492,0.034,2.237,0.031c1.835-0.007,3.67-0.027,5.505-0.043   c0.014,0.086,0.027,0.173,0.041,0.26c-2.984,0.351-5.969,0.702-9.122,1.073c0.08,1.063,0.139,1.84,0.213,2.816   c2.393-0.02,4.58-0.038,6.767-0.057c0.014,0.173,0.029,0.346,0.043,0.517c-2.244,0.28-4.487,0.56-6.944,0.866   c0.058,0.91,0.105,1.666,0.162,2.563c2.779-0.153,5.277-0.292,7.776-0.431c0.016,0.158,0.031,0.316,0.047,0.475   c-2.7,0.361-5.4,0.724-8.743,1.172c0.806,0.797,1.106,1.354,1.499,1.431c1.046,0.205,2.135,0.294,3.203,0.266   c5.541-0.148,11.08-0.404,16.622-0.512c5.216-0.101,10.453-0.345,15.646,0.001c4.326,0.287,8.588,0.097,12.871-0.257   c0.54-0.045,1.064-0.298,1.663-0.476c0.003-4.229,0.342-8.328-0.06-12.274C36.181,18.671,19.391,18.811,2.498,18.953z    M59.128,27.628c-0.064,1.085-0.137,1.735-0.136,2.385c0.012,9.777,0.05,19.555,0.044,29.331c-0.002,4.74,0.149,3.748-3.808,4.745   c-0.071,0.766-0.149,1.602-0.221,2.363c2.753-0.022,5.188-0.043,7.636-0.063c0.187-0.735,0.306-1.21,0.429-1.684   c1.328-5.108,3.574-7.71,9.155-8.93c5.535-1.209,11.116,2.813,11.333,8.835c0.041,1.142,0.023,2.286,0.034,3.56   c2.229,0.271,4.316,0.262,6.275-0.604c0.417-1.819-0.167-3.028-1.628-3.505c-0.321-6.498-0.694-12.774-0.922-19.056   c-0.17-4.711-1.857-8.878-4.313-12.77c-1.396-2.211-3.17-4.056-6.07-4.23c-1.146-0.069-2.284-0.379-3.429-0.394   c-3.81-0.049-7.619-0.014-11.43-0.008C61.176,27.605,60.274,27.618,59.128,27.628z M81.383,65.271   c-0.022-3.779-2.329-6.176-4.925-7.137c-3.085-1.143-6.254-0.416-8.448,1.962c-3.655,3.96-3.681,8.956-0.328,13.038   c0.49,0.598,1.302,0.983,2.032,1.319c2.35,1.082,4.68,0.26,6.998-0.204c1.903-0.381,3.01-1.708,3.503-3.463   C80.722,68.981,81.004,67.112,81.383,65.271z M23.531,65.461c-0.194-1.215-0.211-2.493-0.619-3.632   c-0.997-2.788-3.133-4.307-6.111-4.101c-2.946,0.204-5.94,0.46-7.307,3.955c-1.779,4.553-0.436,9.355,3.667,11.203   c3.893,1.754,6.544,0.896,8.769-2.013C23.153,69.276,23.455,67.432,23.531,65.461z M26.009,67.165   c8.91-0.074,17.705-0.148,26.623-0.223c-0.009-0.991-0.015-1.761-0.022-2.71c-0.641,0.006-1.124,0.001-1.607,0.015   c-7.353,0.222-14.707,0.438-22.06,0.68c-0.736,0.024-1.474,0.18-2.198,0.333C25.751,65.471,25.701,66.162,26.009,67.165z    M55.609,61.442c0.194,0.024,0.39,0.049,0.585,0.073c0.193-0.409,0.511-0.804,0.557-1.229c0.159-1.479,0.307-2.967,0.312-4.451   c0.022-7.361,0.007-14.723-0.018-22.084c-0.005-1.654-0.068-3.312-0.164-4.964c-0.046-0.776-0.422-1.239-1.516-0.739   c0.009,10.551-1.105,21.168-0.159,31.81C55.254,60.393,55.47,60.914,55.609,61.442z M6.345,66.382   c-0.06-0.371-0.098-0.818-0.138-0.818c-1.135-0.006-2.27,0.033-3.405,0.064c0.007,0.128,0.014,0.256,0.021,0.384   C3.928,66.128,5.034,66.244,6.345,66.382z" fill="#7389ab" id="svg_2"/>
	<path d="M62.466,39.415c-0.021-2.478-0.028-4.955-0.065-7.432c-0.035-2.312,0.345-2.748,2.665-2.718   c3.963,0.053,7.931,0.064,11.885,0.293c1.049,0.062,2.276,0.621,3.044,1.351c4.338,4.117,5.806,9.43,5.91,15.216   c0.041,2.308-0.345,2.696-2.76,2.775c-2.477,0.08-4.963,0.097-7.437-0.019c-3.877-0.181-7.743-0.536-11.608,0.209   c-1.264,0.243-1.654-0.227-1.678-1.752c-0.04-2.641-0.049-5.282-0.071-7.923C62.39,39.416,62.428,39.415,62.466,39.415z    M83.932,46.342c-0.008-0.905,0.027-1.634-0.026-2.356c-0.281-3.812-1.668-7.136-4.05-10.167c-1.143-1.454-2.37-2.183-4.126-2.261   c-2.314-0.104-4.627-0.246-6.941-0.352c-1.392-0.063-2.773-0.029-3.884,0.571c-0.101,2.609-0.278,5-0.26,7.39   c0.019,2.421-0.2,4.877,0.394,7.608C71.325,45.912,77.424,47.658,83.932,46.342z" fill="#7389ab" id="svg_3"/>
	<path d="M66.045,50.67c0.266,0.639,0.534,1.282,0.832,1.999c-1.351,0.686-2.599,0.336-3.78,0.249   c-0.321-0.023-0.745-0.816-0.81-1.298c-0.035-0.264,0.548-0.828,0.91-0.884C64.082,50.598,65.001,50.678,66.045,50.67z" fill="#7389ab" id="svg_4"/>
	<path d="M73.448,69.035c-1.146,0.088-1.961-0.488-2.497-1.737c-0.456-1.062-0.068-1.778,0.614-2.434   c1.239-1.189,4.534-0.22,4.993,1.438C76.984,67.835,75.742,68.992,73.448,69.035z" fill="#7389ab" id="svg_5"/>
	<path d="M15.965,68.528c-1.678,0.012-2.47-0.796-2.549-2.599c-0.061-1.399,1.24-2.495,2.992-2.518   c1.492-0.021,2.517,0.986,2.47,2.426C18.824,67.423,17.64,68.516,15.965,68.528z" fill="#7389ab" id="svg_6"/>
</g><g id="svg_7">
</g><g id="svg_8">
</g><g id="svg_9">
</g><g id="svg_10">
</g><g id="svg_11">
</g><g id="svg_12">
</g><g id="svg_13">
</g><g id="svg_14">
</g><g id="svg_15">
</g><g id="svg_16">
</g><g id="svg_17">
</g><g id="svg_18">
</g><g id="svg_19">
</g><g id="svg_20">
</g><g id="svg_21">
</g></g></svg>